# xmcd
#
# Track frame offsets:
#	150
#	14462
#	29026
#	43739
#	58408
#	72867
#	87320
#	102426
#	117200
#	131913
#	146152
#	162087
#	176246
#	191186
#	206696
#	220152
#	234900
#	249191
#	264259
#	278972
#
# Disc length: 3914 seconds
#
# Revision: 0
# Processed by: cddbd v1.5.2PL0 Copyright (c) Steve Scherf et al.
# Submitted via: EasyCDDAExtractor 16.0.6.1
#
DISCID=360f4814
DTITLE=Συλλογικός δίσκος - Τα ρεμπέτικα Β 1922-1937 10 Α
DYEAR=2010
DGENRE=Ρεμπέτικη
TTITLE0=Βαμβακάρης Μάρκος - Φραγκοσυριανή [χασάπ. κουλουριώτικος, Μ.Βαμβ/ρης, 
TTITLE0=Αθ. 9.1935]
TTITLE1=Εσκενάζυ Ρόζα - Για να ξέρεις [ζεϊμπ., καμηλ., Γ. Καμβύσης, Αθήνα 6.19
TTITLE1=36]
TTITLE2=Μπάτης Γιώργος - Ο μπουφετζής [χασάπ., Γ. Μπάτης, Αθήνα 10.1935]
TTITLE3=Ρούκουνας Κώστας ή Σαμιωτάκης - Ντερβίσενα [ζεϊμπ., απτάλικος, Β. Παπά
TTITLE3=ζογλου, Αθήνα 1935]
TTITLE4=Περπινιάδης Στελλάκης - Εγώ θέλω πριγκηπέσα [Παν. Τούντας, Αθήνα 6.193
TTITLE4=6]
TTITLE5=Μαρίκα η Πολίτισσα - Μπαγιαντέρα [καρσιλαμάς, Γ. Ασίκης-Σ. Περιστέρης,
TTITLE5=Αθήνα 1935]
TTITLE6=Βαμβακάρης Μάρκος - Χθες το βράδυ στο σκοτάδι [ζεϊμπ., Μ. Βαμβακάρης, 
TTITLE6=Αθήνα 11.1935]
TTITLE7=Μπάτης Γιώργος - Βάρκα μου μπογιατισμένη [ζεϊμπ., Γ. Μπάτης, Αθήνα 11.
TTITLE7=1934]
TTITLE8=Περπινιάδης Στελλάκης - Μ' αργιλέ και μπαγλαμάδες [ζεϊμπ., ίδιος-Γ. Τσ
TTITLE8=οπανόπουλος, Αθ. 1935]
TTITLE9=Ρούκουνας Κώστας ή Σαμιωτάκης - Αψιλίες [κιοτσέχικο, Γ. Ασίκης, Αθήνα 
TTITLE9=1935]
TTITLE10=Αμπατζή Ρίτα - Ο Βαγγέλης της μαμής [ζεϊμπ., Δ. Τσακίρης-ιδία, Αθήνα 
TTITLE10=6.1936]
TTITLE11=Ρούκουνας Κώστας ή Σαμιωτάκης - Γιατί να κάθεσαι να λες [απτάλ., Σ. Π
TTITLE11=εριστέρης-Γ. Καμβύσης, Αθ.1934-35]
TTITLE12=Αμπατζή Ρίτα-Βαμβακάρης Μάρκος - Αλάνα Πειραιώτισσα [ζεϊμπ., Μ. Βαμβα
TTITLE12=κάρης, Αθήνα 11.1934]
TTITLE13=Παγιουμτζής Στράτος - Σαν εγύριζ' απ' την Πύλο [ζεϊμπ., Β. Παπάζογλου
TTITLE13=, Αθήνα 10.1935]
TTITLE14=Εσκενάζυ Ρόζα - Είμαι μιά τσαχπίνα [χασάπ., Θεόδ. Παπαδόπουλος, Αθήνα
TTITLE14=1934]
TTITLE15=Μπάτης Γιώργος - Οι φυλακές του Ωρωπού [ζεϊμπ., Γ. Μπάτης, Αθήνα 11.1
TTITLE15=934]
TTITLE16=Περπινιάδης Στελλάκης - Βάλε με στην αγκαλιά σου [ζεϊμπ., Β. Παπάζογλ
TTITLE16=ου, Αθήνα 12.1934]
TTITLE17=Ρούκουνας Κώστας ή Σαμιωτάκης - Αχ πετεινέ μου [συρτός, Γ. Ασίκης-Τσά
TTITLE17=μας, Αθήνα 1935]
TTITLE18=Εσκενάζυ Ρόζα - Είμαι πρεζάκιας [τσιφτ., Σ. Ψυριώτης-Ν. Δέλτας, Αθήνα
TTITLE18=21.11.1934]
TTITLE19=Περπινιάδης Στελλάκης - Το παράπονο του ντερβίση [ζεϊμπ., Σ. Περπινιά
TTITLE19=δης, Αθήνα 1935]
EXTD=
EXTT0=
EXTT1=
EXTT2=
EXTT3=
EXTT4=
EXTT5=
EXTT6=
EXTT7=
EXTT8=
EXTT9=
EXTT10=
EXTT11=
EXTT12=
EXTT13=
EXTT14=
EXTT15=
EXTT16=
EXTT17=
EXTT18=
EXTT19=
PLAYORDER=
